<svg version="1.1" id="Layer_1" xmlns="http://www.w3.org/2000/svg" xmlns:xlink="http://www.w3.org/1999/xlink" x="0px" y="0px"
	 width="100%" viewBox="0 0 1024 1024" enable-background="new 0 0 1024 1024" xml:space="preserve">
<path fill="#000000" opacity="1.000000" stroke="none" 
	d="
M168.055054,397.863770 
	C177.284531,402.932098 186.049454,408.109680 195.148819,412.611176 
	C199.462021,414.744934 200.653824,417.330994 199.284744,421.629608 
	C198.882690,422.891907 198.664566,424.216949 198.416763,425.523590 
	C196.059357,437.953766 198.632812,435.255341 185.417908,437.261261 
	C172.431839,439.232391 159.378220,440.757294 146.359543,442.517181 
	C145.429565,442.642914 144.542953,443.089661 142.859497,443.641907 
	C155.668198,450.802948 167.772736,457.689636 179.992554,464.365295 
	C190.219910,469.952423 190.283356,469.843811 188.327332,481.166779 
	C188.100983,482.477051 187.586014,483.774170 187.580429,485.079041 
	C187.563370,489.060455 185.412704,490.441803 181.717087,490.930267 
	C158.799988,493.959320 135.882874,497.002075 113.007103,500.324829 
	C99.725464,502.253998 102.567383,500.790588 104.345001,490.556152 
	C105.919846,481.489105 106.165169,481.726166 115.217110,480.623932 
	C130.665787,478.742828 146.080719,476.584625 162.906174,474.358002 
	C148.473358,466.325012 135.321167,458.925903 122.091293,451.668427 
	C112.948456,446.652954 112.900505,446.740326 114.616989,436.326080 
	C115.894775,428.573425 115.903778,428.646118 123.395142,427.719910 
	C139.393494,425.741852 155.381561,423.680725 172.077133,421.564484 
	C170.182404,419.153168 168.022522,418.319214 166.081741,417.259827 
	C153.068314,410.156372 140.077271,403.009186 126.971672,396.079102 
	C123.475647,394.230469 122.002960,392.130219 123.243660,388.129608 
	C124.461342,384.203278 124.398796,379.927795 126.412766,375.368988 
	C140.332626,382.891327 154.030182,390.293488 168.055054,397.863770 
z"/>
<path fill="#000000" opacity="1.000000" stroke="none" 
	d="
M342.693390,175.317932 
	C348.263184,181.691040 352.603333,188.412338 354.197510,196.459213 
	C357.696411,214.120682 349.947479,227.378418 336.562744,237.614838 
	C326.790405,245.088562 316.146637,251.417313 305.971069,258.373138 
	C303.459198,260.090210 302.027252,259.733856 300.356171,257.196960 
	C287.251556,237.302582 274.079987,217.451736 260.800934,197.673477 
	C258.722321,194.577499 258.546570,192.659683 262.031311,190.449036 
	C271.033691,184.738113 279.703125,178.500198 288.732513,172.834503 
	C300.386169,165.522186 312.792084,161.447617 326.696014,165.711884 
	C332.709229,167.556107 337.934418,170.701736 342.693390,175.317932 
M284.424500,197.728470 
	C292.831146,210.421417 301.237823,223.114365 309.813660,236.062729 
	C316.968567,231.504654 323.768250,227.919510 329.193207,222.456528 
	C336.090149,215.511307 337.932556,207.101471 334.172089,198.132828 
	C330.365723,189.054718 324.029297,182.380875 313.358215,181.996429 
	C301.190338,181.558044 292.900757,189.454300 284.138641,196.203506 
	C283.994751,196.314362 284.161682,196.828705 284.424500,197.728470 
z"/>
<path fill="#000000" opacity="1.000000" stroke="none" 
	d="
M527.316406,859.502930 
	C534.965088,846.062439 547.062378,840.129822 561.271118,837.804077 
	C571.927063,836.059937 582.689026,834.965820 593.349365,833.244995 
	C597.374878,832.595215 598.705078,834.015320 599.203918,837.740112 
	C602.355225,861.266968 605.593506,884.782471 608.925293,908.284424 
	C609.375183,911.458435 608.508728,912.900940 605.275635,913.325134 
	C593.745544,914.838135 582.251892,916.633667 570.715271,918.091003 
	C545.513062,921.274902 526.097046,906.217407 523.031860,881.102539 
	C522.120911,873.638000 523.904785,866.560913 527.316406,859.502930 
M547.957458,893.487854 
	C552.913574,899.330566 559.205505,902.053955 566.878113,901.893433 
	C572.397217,901.777893 577.779419,900.701111 583.225891,900.076477 
	C587.324463,899.606506 587.953186,897.630493 587.344788,893.967957 
	C585.929199,885.446106 585.097412,876.824951 583.606628,868.318115 
	C580.100403,848.309387 585.609924,850.815979 564.069336,854.014404 
	C544.016357,856.991943 536.485962,875.660767 547.957458,893.487854 
z"/>
<path fill="#000000" opacity="1.000000" stroke="none" 
	d="
M227.194153,256.736145 
	C243.804459,252.530457 262.372772,263.360748 267.241913,279.770874 
	C271.901917,295.476105 262.964020,311.709595 245.880463,317.872131 
	C249.910004,321.329437 247.650009,324.058441 245.081863,326.915375 
	C242.769547,329.487762 240.706116,332.283875 238.608643,334.887329 
	C235.587906,334.320648 233.907867,332.344696 231.986404,330.850098 
	C213.465652,316.443878 194.989273,301.980560 176.498123,287.536255 
	C170.737610,283.036469 170.664841,282.983856 175.369339,277.150055 
	C177.632584,274.343506 179.384964,271.031403 183.024414,268.764832 
	C189.944809,274.051392 196.910721,279.372711 204.517380,285.183472 
	C206.198410,270.715942 213.674759,261.451202 227.194153,256.736145 
M240.981964,276.343994 
	C231.624710,272.050995 223.497864,274.593933 219.525940,283.057648 
	C215.887589,290.810547 219.721771,299.566162 228.708115,304.025574 
	C236.418900,307.852020 244.662064,305.206085 248.744171,297.594299 
	C252.726028,290.169434 250.390381,283.331604 240.981964,276.343994 
z"/>
<path fill="#000000" opacity="1.000000" stroke="none" 
	d="
M718.728149,178.226318 
	C728.615479,187.638443 731.650574,198.617325 727.348877,211.218750 
	C723.186401,223.412521 715.186401,231.960709 702.048279,234.123840 
	C688.719116,236.318436 678.174622,230.624115 669.035889,216.727448 
	C665.502563,222.846405 661.879761,228.490204 658.913757,234.460281 
	C656.625427,239.066330 654.361328,239.310425 650.064148,236.801712 
	C639.662598,230.729263 639.417908,230.884689 645.342163,220.299545 
	C656.320312,200.684296 667.525330,181.195694 678.443665,161.547531 
	C680.389832,158.045197 682.206238,157.423950 685.392883,159.744034 
	C687.129700,161.008545 689.161865,161.863708 691.043152,162.934433 
	C693.911072,164.566666 697.876465,165.585571 694.002625,171.032242 
	C704.109253,169.625351 711.645386,172.708847 718.728149,178.226318 
M706.312500,210.758560 
	C712.101746,201.707687 711.937256,194.213196 705.828186,188.687134 
	C699.549561,183.007706 690.370667,183.251678 684.833008,189.245117 
	C678.055176,196.580826 677.429321,206.880905 683.415344,212.576385 
	C690.076782,218.914505 699.030334,218.419327 706.312500,210.758560 
z"/>
<path fill="#000000" opacity="1.000000" stroke="none" 
	d="
M249.585342,711.253174 
	C255.860291,709.945801 260.057159,705.205505 265.184326,702.006470 
	C271.839813,697.853882 271.703033,697.634644 276.138123,704.042419 
	C282.420776,713.119568 282.402771,713.093567 273.272156,719.405396 
	C254.659088,732.272461 236.024109,745.108765 217.506958,758.112732 
	C214.193237,760.439880 212.012619,760.550049 209.981277,756.781250 
	C208.802887,754.594971 207.254379,752.603638 205.822739,750.559448 
	C204.084152,748.076965 202.286224,745.631042 207.345322,743.280457 
	C196.543686,739.347778 190.401047,732.328369 187.192429,722.690125 
	C184.959702,715.983398 185.125931,709.323608 187.718231,702.682922 
	C193.200653,688.638611 209.210831,679.489624 224.395874,681.835754 
	C237.560776,683.869751 248.164139,696.215088 249.585342,711.253174 
M210.935699,703.337830 
	C210.280380,703.844177 209.582703,704.304565 208.976273,704.863953 
	C201.854263,711.433472 201.304840,719.998291 207.549728,726.838867 
	C213.628754,733.497742 222.968597,733.142029 230.466599,725.966003 
	C237.154648,719.565125 237.444366,710.796021 231.180847,704.348145 
	C226.188431,699.208862 219.309967,698.720215 210.935699,703.337830 
z"/>
<path fill="#000000" opacity="1.000000" stroke="none" 
	d="
M829.030029,663.613403 
	C832.197205,667.724548 835.486267,667.148865 838.782959,664.532227 
	C841.939697,662.026794 844.361633,658.822754 846.719360,655.590698 
	C849.962036,651.145691 853.316528,646.787354 857.232910,642.914551 
	C863.475586,636.741211 870.703674,633.722046 879.459717,636.784607 
	C888.671204,640.006470 894.361755,646.671204 895.102722,656.266174 
	C896.474182,674.026123 888.668152,688.126709 875.851074,699.817505 
	C874.252991,701.275208 872.635681,701.453064 871.045776,699.781738 
	C870.931213,699.661255 870.799011,699.557251 870.686401,699.435120 
	C868.207520,696.747864 864.563660,694.432861 863.552063,691.274841 
	C862.324158,687.441467 867.559326,686.336548 869.575195,683.679688 
	C874.053345,677.777527 878.209839,671.818115 878.868652,664.154785 
	C879.175354,660.587097 878.378784,657.460938 874.745361,655.859741 
	C871.209717,654.301636 868.534668,656.022339 866.403015,658.565674 
	C861.380005,664.558777 856.528015,670.695007 851.583008,676.753906 
	C844.637695,685.263611 835.937500,688.404358 827.460083,685.496216 
	C817.598694,682.113281 811.505310,673.998962 811.596252,663.062134 
	C811.751404,644.420410 820.714417,630.128052 834.675232,618.518738 
	C836.776978,616.770996 838.507751,616.970703 840.164001,619.120972 
	C842.490417,622.141357 846.929138,624.277222 847.237427,627.859131 
	C847.556030,631.560730 842.385925,632.631531 840.069214,635.344421 
	C833.171692,643.421570 826.491821,651.514954 829.030029,663.613403 
z"/>
<path fill="#000000" opacity="1.000000" stroke="none" 
	d="
M683.210876,796.360840 
	C685.909973,794.843323 687.119019,795.994873 688.155640,798.133789 
	C699.405884,821.347717 710.659607,844.560364 722.040955,867.710144 
	C723.640015,870.962524 722.594910,872.389038 719.708618,873.891968 
	C707.088501,880.463379 707.177917,880.501404 701.096558,867.824280 
	C696.507263,858.257690 691.751953,848.770691 686.424927,837.935059 
	C682.859863,847.155762 679.219299,854.957947 676.836914,863.126953 
	C673.590393,874.258789 663.238831,874.079529 655.598572,879.029968 
	C654.550476,875.666260 655.859985,873.784973 656.517151,871.804810 
	C659.083801,864.070312 661.561401,856.301453 664.363647,848.652222 
	C665.489563,845.578857 664.612732,844.190552 661.842285,842.896362 
	C651.588684,838.106628 641.412109,833.151245 631.236816,828.195984 
	C629.638794,827.417725 627.752808,826.987305 626.109131,824.256897 
	C632.362549,821.272888 638.490906,818.242432 644.727539,815.454407 
	C646.122131,814.830933 647.574158,816.101318 648.916565,816.727051 
	C656.584656,820.301025 664.242065,823.897827 672.142273,827.598938 
	C675.419678,822.341797 677.232483,817.710754 673.900024,811.732971 
	C669.179565,803.265564 669.541931,803.062866 678.406372,798.713257 
	C679.900635,797.980042 681.397766,797.252869 683.210876,796.360840 
z"/>
<path fill="#000000" opacity="1.000000" stroke="none" 
	d="
M893.331543,402.749786 
	C890.161499,399.905823 887.435791,402.356262 884.752197,403.059479 
	C871.560242,406.516571 873.405029,404.515930 876.609802,417.325836 
	C878.344910,424.261200 880.376892,431.126953 882.453613,437.969879 
	C883.267639,440.652161 882.539185,441.779541 879.892212,442.689880 
	C868.470215,446.618103 868.498657,446.702728 865.273987,435.120850 
	C863.399414,428.388031 861.358765,421.695221 859.721191,414.905182 
	C858.836914,411.238800 857.139587,410.498169 853.686584,411.549469 
	C847.478088,413.439789 841.129272,414.867615 834.912598,416.733521 
	C831.569946,417.736816 830.153992,416.616699 829.091492,413.444885 
	C824.362915,399.329193 824.289856,399.373596 838.519653,395.448914 
	C858.249207,390.007355 878.004089,384.652435 897.668640,378.984436 
	C901.996338,377.737061 903.545654,378.960602 904.621887,383.045746 
	C908.943420,399.449310 913.459290,415.803070 918.076477,432.126221 
	C919.084290,435.689331 918.120483,437.318024 914.584473,438.130341 
	C903.184998,440.749146 904.517029,443.048920 901.167847,430.483582 
	C898.725403,421.319977 896.070923,412.212921 893.331543,402.749786 
z"/>
<path fill="#000000" opacity="1.000000" stroke="none" 
	d="
M193.076065,320.051453 
	C199.049240,320.454956 204.306259,321.832642 209.293335,324.369385 
	C212.447693,325.973969 213.161163,327.793549 211.447998,331.116852 
	C206.030869,341.625366 200.865707,352.264404 195.669968,362.885651 
	C194.896423,364.466980 193.584488,365.948029 194.105316,368.357574 
	C199.594711,369.328705 203.778549,366.794586 207.105865,362.928345 
	C211.267975,358.092102 213.545013,352.344543 212.606796,345.844330 
	C212.131882,342.553986 213.202271,341.096588 216.314682,340.087158 
	C226.851089,336.670013 228.411652,337.735321 228.309235,348.943420 
	C228.123978,369.223053 210.958954,386.992645 192.228714,386.294678 
	C172.426895,385.556793 157.847900,366.344940 162.574524,347.217133 
	C166.491440,331.366150 176.103790,322.687103 193.076065,320.051453 
M192.810318,342.427795 
	C193.340805,340.932251 194.635574,339.608246 193.903336,337.827026 
	C186.615143,336.470490 181.055252,339.415161 178.317245,346.040375 
	C175.581451,352.660309 177.035599,358.585510 182.945282,362.655151 
	C186.160919,356.077057 189.333466,349.587158 192.810318,342.427795 
z"/>
<path fill="#000000" opacity="1.000000" stroke="none" 
	d="
M761.150879,256.863800 
	C753.847656,250.550339 746.804565,244.476608 739.611267,238.273407 
	C736.488464,241.187271 736.896545,244.401413 737.893616,247.308807 
	C740.638306,255.312592 746.177063,260.382507 754.632019,261.998199 
	C756.715210,262.396271 759.268982,262.217438 759.665894,265.095459 
	C760.185120,268.859924 760.852112,272.711151 759.310303,276.378296 
	C758.808960,277.570892 757.278259,277.273468 756.138000,277.343536 
	C752.415405,277.572357 748.863342,276.898712 745.434753,275.412628 
	C736.771118,271.657501 729.838257,265.858246 724.890686,257.819824 
	C716.351196,243.945663 719.145569,227.384903 731.688171,216.867279 
	C743.876282,206.646881 760.992249,206.973938 773.351379,217.663345 
	C788.312866,230.603531 789.687805,251.328827 776.611145,264.465057 
	C774.216248,266.870850 772.455750,267.172058 769.995178,264.742828 
	C767.273010,262.055328 764.283875,259.638336 761.150879,256.863800 
M764.284302,229.165619 
	C756.824097,224.154770 751.717773,224.035858 746.719116,229.155502 
	C753.754517,234.776810 759.924805,241.370163 767.386475,246.540375 
	C771.316528,240.470947 770.462952,235.707062 764.284302,229.165619 
z"/>
<path fill="#000000" opacity="1.000000" stroke="none" 
	d="
M381.895325,190.379410 
	C390.629578,194.491821 401.481720,192.277527 406.812805,184.768524 
	C409.492279,180.994385 411.604187,180.892029 415.327209,182.864807 
	C423.870789,187.391907 424.323517,188.465485 417.899384,195.629181 
	C406.842285,207.959229 380.772644,216.391602 364.849060,199.073425 
	C356.067078,189.522339 353.163818,178.115234 357.920105,165.706955 
	C362.647552,153.373917 372.552917,146.872314 385.124969,144.796524 
	C400.907684,142.190628 413.531769,150.123444 419.325531,165.175171 
	C420.749268,168.873962 420.271332,170.945450 416.259338,172.378479 
	C405.596893,176.186951 395.044861,180.305084 384.457123,184.321609 
	C382.609131,185.022659 380.800995,185.828644 379.068756,186.547043 
	C378.902863,188.730301 380.445435,189.312469 381.895325,190.379410 
M388.481720,159.218201 
	C377.963409,160.376144 372.318573,166.581070 374.171265,175.710587 
	C382.755707,172.507172 391.516327,170.055603 399.912323,165.731277 
	C397.208069,161.300171 393.614502,159.664200 388.481720,159.218201 
z"/>
<path fill="#000000" opacity="1.000000" stroke="none" 
	d="
M321.591125,829.823608 
	C322.156738,825.563171 323.545959,822.025696 325.212128,818.553711 
	C326.824585,815.193481 328.735168,814.465088 332.279510,816.344910 
	C342.423889,821.725220 352.759644,826.745544 363.037079,831.873413 
	C364.795624,832.750977 366.464386,833.921814 368.892639,834.030457 
	C370.595490,830.616272 369.088135,827.546692 367.356445,824.868103 
	C362.688965,817.648438 355.717407,814.800171 347.282349,815.094177 
	C345.370483,815.160828 342.916504,815.998230 342.059570,813.480774 
	C340.792053,809.757202 338.698120,806.064087 339.505798,802.001160 
	C339.834717,800.346558 342.171326,800.201355 343.762573,799.885010 
	C362.750397,796.109497 385.853790,812.846069 387.096497,832.009155 
	C387.909210,844.541443 382.263245,854.658813 371.618805,861.465332 
	C360.892517,868.324280 349.759552,867.613525 338.927216,861.676270 
	C325.929321,854.552124 319.448730,842.515930 321.591125,829.823608 
M342.593353,846.917542 
	C350.765198,852.740479 358.261475,852.239380 363.486115,844.934631 
	C355.342377,840.827087 347.300537,836.770996 338.896820,832.532288 
	C337.215057,838.339355 338.550659,842.636475 342.593353,846.917542 
z"/>
<path fill="#000000" opacity="1.000000" stroke="none" 
	d="
M190.407791,685.958496 
	C164.204697,689.415955 148.968445,663.034119 153.650864,644.589172 
	C156.543304,633.195190 164.112808,626.473633 174.704636,622.433228 
	C177.728424,621.279846 178.475708,623.054871 179.382385,625.188110 
	C183.937515,635.905396 188.542435,646.601501 193.127167,657.306213 
	C193.895706,659.100647 194.411087,661.048706 196.174438,662.553223 
	C200.803421,659.802856 201.850906,655.320801 201.375839,650.915039 
	C200.663544,644.309326 198.018478,638.244324 192.058746,634.557617 
	C188.731689,632.499573 188.646713,630.477051 190.105377,627.166199 
	C194.351868,617.527405 196.151184,616.766724 203.834518,624.172119 
	C215.331711,635.253418 220.125793,648.899109 215.698135,664.593384 
	C212.236938,676.861816 202.756470,683.011108 190.407791,685.958496 
M176.072250,646.572266 
	C175.385376,645.302795 175.239746,643.656921 173.654144,643.012268 
	C167.235336,647.511230 165.918762,654.559265 170.118103,661.761108 
	C173.539276,667.628479 179.357559,669.951599 184.862686,667.248230 
	C182.043701,660.597046 179.209427,653.909729 176.072250,646.572266 
z"/>
<path fill="#000000" opacity="1.000000" stroke="none" 
	d="
M241.074142,789.801025 
	C226.912399,767.381714 242.274796,743.648376 262.566711,740.224060 
	C278.951019,737.459167 298.913940,752.043152 302.212128,769.618347 
	C304.648376,782.600708 299.825104,792.949768 289.760925,800.729370 
	C279.651093,808.544189 268.441681,809.366272 256.896118,803.746155 
	C250.472031,800.618958 245.350739,795.950806 241.074142,789.801025 
M255.271286,766.960632 
	C251.004410,775.676636 253.152847,783.427917 261.080902,787.920776 
	C268.152618,791.928406 276.963989,789.205444 282.208710,781.391846 
	C286.968292,774.300964 285.558075,765.502075 278.861847,760.509766 
	C271.502289,755.022949 262.937805,757.170349 255.271286,766.960632 
z"/>
<path fill="#000000" opacity="1.000000" stroke="none" 
	d="
M799.147705,734.255371 
	C799.201355,743.966980 793.602966,750.429932 787.971680,756.845093 
	C785.577576,759.572449 782.685669,761.880127 780.742371,765.297180 
	C784.012329,768.758362 787.568115,769.443848 791.540283,767.280273 
	C797.731201,763.908264 801.219238,758.322388 803.630005,751.945068 
	C804.269409,750.253906 804.715454,748.489685 805.314758,746.550537 
	C809.505005,746.248901 813.165161,747.992859 816.930115,749.040894 
	C819.188232,749.669434 819.259827,751.508179 818.698425,753.508179 
	C815.075256,766.416626 807.869751,776.756531 796.170166,783.430786 
	C786.954224,788.688110 777.654724,787.574463 769.601746,780.946533 
	C760.355469,773.336609 751.664185,765.053467 742.702576,757.095642 
	C740.633850,755.258606 740.654297,753.597473 742.568359,751.628784 
	C744.654846,749.482788 746.534546,747.136963 748.532166,744.903076 
	C750.419922,742.792053 752.316406,740.580566 755.436523,744.576416 
	C757.247864,734.128418 762.042847,726.662292 770.309387,721.608337 
	C782.662109,714.056274 795.894409,719.682312 799.147705,734.255371 
M783.418640,742.208984 
	C783.494141,738.201843 781.238647,735.596497 777.568726,735.575928 
	C772.313538,735.546448 769.352905,739.522522 767.323608,743.827576 
	C765.534180,747.623474 765.472717,751.573303 768.580750,754.950012 
	C770.068298,756.566284 771.864258,757.593933 773.627808,755.453796 
	C776.975647,751.390930 781.349915,748.094238 783.418640,742.208984 
z"/>
<path fill="#000000" opacity="1.000000" stroke="none" 
	d="
M487.585205,902.808228 
	C465.582611,903.605835 450.802826,889.431152 451.740326,868.912964 
	C452.006378,863.090393 452.847473,862.385986 458.729126,862.900208 
	C470.496399,863.929016 482.264496,864.949707 494.036316,865.924255 
	C495.300293,866.028931 496.664062,866.629822 498.206543,865.342224 
	C497.627228,861.855652 495.693909,859.119934 492.587036,857.222290 
	C485.675568,853.000854 478.272766,852.498840 471.122681,855.959412 
	C467.362030,857.779541 465.331360,857.313904 463.507599,853.914368 
	C463.352264,853.624817 463.106049,853.384155 462.903961,853.119385 
	C457.433289,845.949829 457.577606,845.011658 466.086578,841.257141 
	C481.993134,834.238342 511.804626,839.683960 516.787659,864.547241 
	C520.500793,883.074036 508.171783,899.689270 487.585205,902.808228 
M493.875366,884.504333 
	C495.625153,882.770691 497.337982,881.020935 496.889648,877.723450 
	C487.750061,876.917480 478.843506,876.132080 469.807739,875.335266 
	C470.630005,887.013977 482.679688,891.529358 493.875366,884.504333 
z"/>
<path fill="#000000" opacity="1.000000" stroke="none" 
	d="
M642.678955,198.928497 
	C623.956787,208.666702 600.127502,197.952560 593.348450,182.309402 
	C584.510925,161.915817 599.258606,138.322830 621.450867,137.815933 
	C640.736328,137.375443 655.637939,149.234909 658.837280,167.569931 
	C660.740479,178.477097 653.963074,191.830322 642.678955,198.928497 
M627.884216,154.360565 
	C626.887268,154.301422 625.889404,154.178558 624.893494,154.193054 
	C615.849121,154.324783 609.219116,162.023804 609.393799,172.164993 
	C609.539612,180.630585 616.895264,187.194397 625.735779,186.747711 
	C633.201050,186.370499 639.136841,179.723663 640.446960,170.274139 
	C641.398743,163.409515 636.991150,157.493240 627.884216,154.360565 
z"/>
<path fill="#000000" opacity="1.000000" stroke="none" 
	d="
M549.774658,135.387573 
	C553.399292,141.025925 554.903748,146.933105 555.177185,153.189514 
	C555.359436,157.360992 553.929382,159.610214 549.115845,159.443115 
	C537.964294,159.055984 526.797485,159.081116 515.636353,159.024887 
	C513.541199,159.014328 511.329376,158.474075 509.352905,159.684158 
	C510.581482,166.610611 518.437500,171.429962 527.095398,170.477737 
	C530.745667,170.076294 534.412598,169.361923 537.366211,166.966248 
	C539.720215,165.056915 541.310852,165.650879 543.306030,167.657730 
	C551.341797,175.740723 551.062073,178.483673 540.202637,182.578827 
	C526.426697,187.773804 512.999756,186.692047 500.863556,177.759155 
	C491.117188,170.585220 486.972992,156.598145 490.604034,144.466080 
	C494.302917,132.107361 505.515900,122.696495 517.657166,121.743950 
	C530.578186,120.730232 541.822021,123.714577 549.774658,135.387573 
M508.797791,145.706985 
	C509.223755,148.181442 511.222839,147.575821 512.753052,147.603897 
	C517.914917,147.698593 523.082214,147.785263 528.241089,147.644867 
	C530.943542,147.571304 533.846008,148.518265 536.360596,146.777039 
	C534.978699,140.590088 531.033203,136.985672 525.108521,136.313446 
	C517.226868,135.419189 512.414856,138.018951 508.797791,145.706985 
z"/>
<path fill="#000000" opacity="1.000000" stroke="none" 
	d="
M888.072388,456.786133 
	C892.192078,456.510132 895.847961,456.341034 899.484009,455.974792 
	C902.616882,455.659271 904.238464,456.809937 904.252869,460.065765 
	C904.262512,462.228027 904.291138,464.403046 904.524170,466.549225 
	C905.395813,474.575623 905.203552,474.748810 896.965332,475.251129 
	C887.843750,475.807312 878.684937,476.148224 869.630249,477.283752 
	C861.838623,478.260895 858.932861,482.359436 859.323975,489.902863 
	C859.664246,496.465515 864.350647,501.383881 871.172852,501.786102 
	C881.175842,502.375702 891.125671,501.030548 901.070618,500.266785 
	C905.830139,499.901215 907.484314,501.439362 907.302246,505.977600 
	C907.189331,508.792023 907.365051,511.646057 907.715881,514.444092 
	C908.163818,518.016907 906.557556,519.117249 903.227234,519.303101 
	C885.787109,520.276184 868.346558,521.277832 850.926453,522.547668 
	C846.876587,522.842957 845.417542,521.583862 845.599243,517.670105 
	C845.690857,515.696594 845.374329,513.689453 845.102600,511.716858 
	C844.604492,508.101624 843.947388,504.473083 850.036255,504.159119 
	C844.949585,497.516724 842.406189,490.915985 842.601074,483.237732 
	C842.944092,469.723755 851.267700,460.168121 864.741638,458.706451 
	C872.340332,457.882111 879.979187,457.428223 888.072388,456.786133 
z"/>
<path fill="#000000" opacity="1.000000" stroke="none" 
	d="
M744.493286,798.890137 
	C743.237427,795.503967 741.497498,792.924866 739.247131,790.616638 
	C734.797241,786.052246 729.380737,784.894531 723.667847,786.972778 
	C717.863037,789.084412 713.710327,793.329773 713.440002,799.862732 
	C713.297180,803.314880 711.889648,804.617188 708.837341,804.946167 
	C707.680359,805.070862 706.526550,805.224426 705.371460,805.366455 
	C696.575989,806.447510 694.660828,804.440186 697.084656,795.377258 
	C700.919739,781.037781 711.192078,773.108521 725.048401,769.812744 
	C739.560974,766.360901 753.876648,773.749878 760.174561,787.179138 
	C766.723022,801.142700 762.471375,816.964600 749.361694,827.201721 
	C741.273987,833.517212 732.398987,837.168274 721.959412,834.438049 
	C716.490662,833.007812 716.142944,831.981262 718.443115,826.772461 
	C719.384094,824.641479 720.421143,822.546021 721.232422,820.366577 
	C722.174805,817.835205 723.857727,817.406128 726.352173,817.769470 
	C738.855164,819.591125 746.092346,812.203674 744.493286,798.890137 
z"/>
<path fill="#000000" opacity="1.000000" stroke="none" 
	d="
M456.984772,190.120087 
	C451.797302,191.862030 449.153412,189.835846 446.581482,185.680939 
	C437.127228,170.407486 427.247833,155.397202 417.531738,140.285767 
	C416.552917,138.763397 415.255524,137.395828 415.038788,134.590378 
	C420.457306,133.331451 425.973328,131.925308 431.695099,131.618210 
	C433.886902,131.500580 434.467987,133.744476 435.417938,135.239166 
	C442.104248,145.759537 448.760101,156.299271 455.788483,167.406113 
	C458.158325,162.917969 458.529755,158.486786 459.569641,154.304443 
	C461.573273,146.246094 463.369659,138.132950 465.076691,130.005707 
	C465.769989,126.705025 467.106567,124.670898 470.819427,124.348892 
	C474.881439,123.996613 478.805603,122.288406 483.177582,122.816254 
	C483.865540,126.802994 482.205780,130.189499 481.414032,133.679077 
	C477.665283,150.201202 473.765198,166.689270 470.085297,183.226456 
	C469.332520,186.609451 467.830109,188.531113 464.262024,188.835220 
	C461.956207,189.031738 459.684875,189.633545 456.984772,190.120087 
z"/>
<path fill="#000000" opacity="1.000000" stroke="none" 
	d="
M402.719238,843.750244 
	C406.490753,839.062561 410.036713,834.649414 413.584656,830.237854 
	C414.210602,829.459534 414.694519,828.437927 415.499634,827.953430 
	C421.142853,824.557495 425.864746,829.352905 431.088409,829.882324 
	C433.513885,830.128113 435.181702,831.394714 435.528137,834.358521 
	C437.340607,849.864258 439.370148,865.344543 441.315765,880.834778 
	C441.973877,886.074463 442.607147,891.317200 443.364227,897.472717 
	C436.890015,896.491028 431.320190,894.648376 425.856262,892.506714 
	C424.474304,891.964966 424.721222,890.228210 424.567047,888.927002 
	C423.276672,878.036011 421.975677,867.146057 420.725800,856.250366 
	C420.500519,854.286194 420.609650,852.270996 419.118286,849.997437 
	C411.907410,858.902222 404.804077,867.610291 397.773315,876.376587 
	C392.074799,883.481628 392.106232,883.537781 383.600464,881.090698 
	C381.086365,880.367371 378.625824,879.458008 374.946014,878.237671 
	C384.493805,866.380249 393.494110,855.202820 402.719238,843.750244 
z"/>
<path fill="#000000" opacity="1.000000" stroke="none" 
	d="
M820.304321,715.717041 
	C815.812256,712.811157 811.709412,709.943237 807.388916,707.452759 
	C802.087158,704.396606 797.679504,705.831299 796.057983,711.693115 
	C794.903381,715.867188 793.151245,716.238342 789.399414,715.450012 
	C779.895203,713.453003 779.102295,712.211975 783.110901,703.328613 
	C784.558350,700.120911 786.488220,697.211182 788.814453,694.574158 
	C796.492432,685.870239 805.682617,684.321594 815.630554,690.321045 
	C821.612854,693.928833 827.461853,697.774170 833.214355,701.739746 
	C836.402954,703.937866 838.852051,704.348816 840.822876,700.413940 
	C842.327881,697.409119 844.261963,697.684631 846.894897,699.315430 
	C854.627808,704.104980 854.690125,704.004395 851.028503,712.733337 
	C852.224609,714.870178 854.689575,715.417297 856.473145,716.841431 
	C858.261414,718.269287 860.596252,719.032959 862.078369,721.592834 
	C859.520935,725.642944 856.855713,729.817200 854.241699,734.023254 
	C852.990173,736.036987 851.616821,735.969177 849.644836,734.896973 
	C846.364624,733.113525 843.621826,728.710022 839.848694,729.926147 
	C836.594604,730.974915 835.602966,735.607361 833.523682,738.593262 
	C832.172058,740.534363 830.939636,740.569580 828.936462,739.520142 
	C819.170288,734.403931 819.062622,734.144775 824.926514,724.706604 
	C825.703918,723.455322 826.363098,722.130615 827.065735,720.860352 
	C825.274048,718.468506 822.707397,717.493164 820.304321,715.717041 
z"/>
<path fill="#000000" opacity="1.000000" stroke="none" 
	d="
M300.910583,803.941650 
	C306.586182,795.897217 312.159363,788.215942 317.476776,780.361572 
	C319.521027,777.341980 321.313995,776.713684 324.257172,779.165222 
	C326.933228,781.394348 329.926239,783.247131 332.809998,785.221313 
	C334.863190,786.627014 335.101624,788.065002 333.601135,790.193787 
	C318.643799,811.414185 303.740021,832.672607 288.887207,853.966370 
	C287.107391,856.518066 285.433624,856.522888 283.122772,854.762207 
	C280.477875,852.746948 277.739258,850.827942 274.896088,849.107178 
	C271.896973,847.292053 271.791687,845.537537 273.812531,842.699585 
	C282.886719,829.956421 291.760223,817.070312 300.910583,803.941650 
z"/>
<path fill="#000000" opacity="1.000000" stroke="none" 
	d="
M896.611938,555.414307 
	C879.751770,553.986389 863.354980,552.569763 846.952454,551.223877 
	C843.899963,550.973450 842.369812,549.656799 842.691772,546.468140 
	C843.075562,542.667480 843.433411,538.862915 843.711914,535.053406 
	C843.937622,531.967346 846.033264,532.407471 848.063354,532.574036 
	C862.311035,533.743652 876.560974,534.885254 890.807373,536.070251 
	C901.748230,536.980286 912.676270,538.064697 923.627686,538.813538 
	C927.628601,539.087158 929.086548,540.248169 928.592896,544.623657 
	C927.073853,558.086548 927.262146,558.155823 913.945984,557.132080 
	C908.311951,556.698914 902.696960,556.018250 896.611938,555.414307 
z"/>
<path fill="#000000" opacity="1.000000" stroke="none" 
	d="
M897.113403,572.741333 
	C905.086853,574.129883 912.608765,575.610046 920.184021,576.729065 
	C923.876770,577.274597 924.951538,578.921936 924.229553,582.460205 
	C920.858826,598.978821 924.264160,596.674683 908.279236,593.889343 
	C887.144409,590.206665 866.079651,586.123413 844.975464,582.262939 
	C837.432434,580.883118 837.420105,580.950439 838.741028,573.468872 
	C840.700134,562.372620 840.694031,562.405518 852.023315,564.504395 
	C866.904480,567.261475 881.796509,569.960327 897.113403,572.741333 
z"/>
<path fill="#000000" opacity="1.000000" stroke="none" 
	d="
M559.752808,183.922821 
	C563.809143,158.590790 567.910950,133.709305 571.846497,108.801529 
	C572.514648,104.572845 573.990601,102.950111 578.635193,103.680084 
	C591.053284,105.631805 591.272522,105.449829 589.324646,117.960922 
	C585.801270,140.591461 581.964478,163.173172 578.430725,185.802170 
	C577.846375,189.544128 576.434998,190.620926 572.793762,189.629654 
	C569.928162,188.849548 566.897034,188.682617 563.943115,188.220016 
	C561.699341,187.868622 559.596985,187.332855 559.752808,183.922821 
z"/>
<path fill="#000000" opacity="1.000000" stroke="none" 
	d="
M805.549988,252.921783 
	C811.716003,254.717285 813.767639,260.368591 817.042786,264.708527 
	C818.512634,266.656250 814.845642,267.538635 814.088562,269.691864 
	C820.125610,271.008881 825.187683,273.621613 829.425232,277.839081 
	C831.609314,280.012787 832.396362,281.808929 829.306702,283.736633 
	C828.749268,284.084442 828.314636,284.622864 827.789429,285.029480 
	C825.294067,286.961243 823.049011,289.632599 820.219849,290.614685 
	C816.419739,291.933838 815.587769,287.203125 813.126892,285.523315 
	C807.178467,281.462830 801.491211,281.112854 795.165588,285.883728 
	C788.135803,291.185699 781.339355,296.818634 774.689575,302.593353 
	C771.688293,305.199677 769.626953,305.231903 767.590393,301.818573 
	C767.337585,301.394928 766.966370,301.041565 766.647644,300.657684 
	C758.711060,291.097778 758.732483,291.124268 768.202332,283.402313 
	C780.572449,273.315521 792.904297,263.181763 805.549988,252.921783 
z"/>
<path fill="#000000" opacity="1.000000" stroke="none" 
	d="
M131.593445,584.274536 
	C135.735062,581.659668 140.302063,581.348938 144.580368,580.095520 
	C147.012802,579.382812 147.622467,581.292236 148.241043,583.135925 
	C152.139435,594.755371 156.887817,597.508118 168.951355,594.927368 
	C176.765778,593.255554 184.557327,591.453857 192.297653,589.470459 
	C195.326492,588.694397 196.707123,589.208862 197.673401,592.445740 
	C201.853989,606.450378 201.984985,606.504272 188.075409,609.932007 
	C173.851257,613.437256 159.566467,616.696228 145.337830,620.183838 
	C141.888748,621.029236 139.936310,620.320312 139.434097,616.518616 
	C139.130844,614.222900 138.546143,611.917175 137.739700,609.745239 
	C136.216904,605.643921 136.979782,602.942871 142.400909,602.368164 
	C136.651489,597.256592 132.240997,591.980957 131.593445,584.274536 
z"/>
<path fill="#000000" opacity="1.000000" stroke="none" 
	d="
M186.431717,535.330872 
	C180.762100,541.956787 169.066498,540.232300 166.756073,530.938782 
	C165.352371,525.292480 167.441483,520.167358 172.037598,517.639709 
	C176.416763,515.231384 182.913330,516.288330 186.284470,519.957520 
	C190.092453,524.102234 190.232285,529.278503 186.431717,535.330872 
z"/>
<path fill="#000000" opacity="1.000000" stroke="none" 
	d="
M812.378052,363.185242 
	C803.270081,359.817108 800.172119,351.576080 805.171326,345.042877 
	C808.284912,340.973816 813.662048,339.137177 817.943909,340.680145 
	C822.705688,342.396057 826.412659,347.835632 826.118408,352.675507 
	C825.836060,357.321442 822.187744,361.608337 817.222839,362.882904 
	C815.806702,363.246429 814.269409,363.138275 812.378052,363.185242 
z"/>
</svg>